# xmcd
#
# Track frame offsets:
#	150
#	14487
#	24303
#	35801
#	48550
#	61915
#	75434
#	87656
#	102844
#	114250
#	126073
#	139560
#	154480
#	165478
#	178257
#	193351
#	208227
#	222210
#
# Disc length: 3132 seconds
#
# Revision: 2
# Processed by: cddbd v1.5.1PL2 Copyright (c) Steve Scherf et al.
# Submitted via: audiograbber 1.83.01
#
DISCID=010c3a12
DTITLE=Collection - Modernoi Rythmoi 2 [CD 6)
DYEAR=1999
DGENRE=Oldies
TTITLE0=Nostradamos - Ta Paramythia tis Giagias
TTITLE1=The Forminx - Il Peperone
TTITLE2=The Charms - Glykia Agapimeni
TTITLE3=The Sounds - To Mathima (Un bimbo sui Leone)
TTITLE4=Peloma Boqiou - Mari Maria
TTITLE5=Nikos Antoniou - To Kalokairi Ekeino
TTITLE6=The Idols - Sto Feggari Emeis oi Dyo (Mr Sun, Mr Moon)
TTITLE7=The Charms - Nostalgia
TTITLE8=Marina - An Tyhei na Perasete apo 'kei
TTITLE9=Teris Hrysos - Itan mia Optasia (Donna di picche)
TTITLE10=Zoitsa Kouroukli - I Tramontana (Tramontana)
TTITLE11=Sergia Endrigo - Kai Tora Nai (Adesso si)
TTITLE12=The Sounds - Tragoudontas sti Vrohi (Have you ever seen the rain)
TTITLE13=Giovanna  - Itan
TTITLE14=Christina - Nai
TTITLE15=Lakis Tzordanelli - To Diko mou Tragoudi
TTITLE16=Ariones - Tremei i Kardia mou (Cuore matto)
TTITLE17=The Persons - Eisai to Koritsi pou Agapo (Time of the season)
EXTD=
EXTT0=
EXTT1=
EXTT2=
EXTT3=
EXTT4=
EXTT5=
EXTT6=
EXTT7=
EXTT8=
EXTT9=
EXTT10=
EXTT11=
EXTT12=
EXTT13=
EXTT14=
EXTT15=
EXTT16=
EXTT17=
PLAYORDER=
